# xmcd CD database file
#
# Track frame offsets:
#	150
#	16543
#	26738
#	44168
#	58145
#	73208
#	96098
#	112040
#	137563
#	157983
#	177275
#	191155
#	205760
#	218513
#	236273
#	254480
#	274038
#
# Disc length: 3887 seconds
#
# Revision: 1
# Processed by: cddbd v1.5.1PL0 Copyright (c) Steve Scherf et al.
# Submitted via: CDex 1.51
#
DISCID=f40f2d11
DTITLE=松本零士 - 宇宙海賊キャプテンハーロック メモリアル・ソング・コレクション
DYEAR=1900
DGENRE=Anime
TTITLE0=水木一郎/キャプテンハーロック
TTITLE1=コロムビア男声合唱団/さすらいの舟唄
TTITLE2=水木一郎/わが友わが命
TTITLE3=水木一郎/銀河子守唄
TTITLE4=かおりくみこ/ミーメのエナジー
TTITLE5=水木一郎/むかしむかし
TTITLE6=コロムビア・オーケストラ/まゆのテーマ
TTITLE7=コロムビア男声合唱団/おれたちゃ宇宙の海賊さ スペースウルフ小唄
TTITLE8=水木一郎/妹たちよ
TTITLE9=コロムビア女声合唱団/女王ラフレシア
TTITLE10=水木一郎/われらの旅立ち
TTITLE11=水木一郎/おれたちの船出
TTITLE12=水木一郎/ハーロックのバラード
TTITLE13=渋谷哲平/わが青春のアルカディア
TTITLE14=渋谷哲平/白夜にひとり
TTITLE15=朝比奈マリア/太陽は死なない
TTITLE16=朝比奈マリア/星空のラストソング
EXTD=
EXTT0=
EXTT1=
EXTT2=
EXTT3=
EXTT4=
EXTT5=
EXTT6=
EXTT7=
EXTT8=
EXTT9=
EXTT10=
EXTT11=
EXTT12=
EXTT13=
EXTT14=
EXTT15=
EXTT16=
PLAYORDER=
